<?xml version="1.0" encoding="UTF-8"?>
<svg id="Layer_1" xmlns="http://www.w3.org/2000/svg" xmlns:xlink="http://www.w3.org/1999/xlink"
     viewBox="0 0 508.3 682.19">
    <defs>
        <style>
            .cls-1{fill:url(#Disbroad_Gradient-9);}.cls-1,.cls-2,.cls-3,.cls-4,.cls-5,.cls-6,.cls-7,.cls-8,.cls-9,.cls-10{stroke-width:0px;}.cls-2{fill:url(#linear-gradient);}.cls-3{fill:url(#Disbroad_Gradient-6);}.cls-4{fill:url(#Disbroad_Gradient-5);}.cls-5{fill:url(#Disbroad_Gradient);}.cls-6{fill:url(#Disbroad_Gradient-4);}.cls-7{fill:url(#Disbroad_Gradient-3);}.cls-8{fill:url(#Disbroad_Gradient-7);}.cls-9{fill:url(#Disbroad_Gradient-2);}.cls-10{fill:url(#Disbroad_Gradient-8);}
        </style>
        <linearGradient id="linear-gradient" x1="252.59" y1="-7.86" x2="255.71" y2="687.15"
                        gradientUnits="userSpaceOnUse">
            <stop offset="0" stop-color="#00ffd5"/>
            <stop offset=".03" stop-color="#05f9d4"/>
            <stop offset="1" stop-color="#a62ab7"/>
        </linearGradient>
        <linearGradient id="Disbroad_Gradient" x1="253.52" y1="-7.86" x2="256.64" y2="687.14"
                        gradientUnits="userSpaceOnUse">
            <stop offset="0" stop-color="#00ffd5"/>
            <stop offset="1" stop-color="#a62ab7"/>
        </linearGradient>
        <linearGradient id="Disbroad_Gradient-2" x1="391.66" y1="-8.48" x2="394.78" y2="686.52"
                        xlink:href="#Disbroad_Gradient"/>
        <linearGradient id="Disbroad_Gradient-3" x1="331.65" y1="-8.21" x2="334.77" y2="686.79"
                        xlink:href="#Disbroad_Gradient"/>
        <linearGradient id="Disbroad_Gradient-4" x1="252.65" y1="-7.86" x2="255.77" y2="687.15"
                        xlink:href="#Disbroad_Gradient"/>
        <linearGradient id="Disbroad_Gradient-5" x1="114.53" y1="-7.24" x2="117.65" y2="687.77"
                        xlink:href="#Disbroad_Gradient"/>
        <linearGradient id="Disbroad_Gradient-6" x1="174.53" y1="-7.51" x2="177.65" y2="687.5"
                        xlink:href="#Disbroad_Gradient"/>
        <linearGradient id="Disbroad_Gradient-7" x1="251.78" y1="-7.86" x2="254.9" y2="687.15"
                        xlink:href="#Disbroad_Gradient"/>
        <linearGradient id="Disbroad_Gradient-8" x1="389.91" y1="-8.48" x2="393.03" y2="686.53"
                        xlink:href="#Disbroad_Gradient"/>
        <linearGradient id="Disbroad_Gradient-9" x1="329.91" y1="-8.21" x2="333.03" y2="686.8"
                        xlink:href="#Disbroad_Gradient"/>
    </defs>
    <path class="cls-2"
          d="M430.47,682.19H77.83c-42.92,0-77.83-34.92-77.83-77.83V77.83C0,34.92,34.92,0,77.83,0h352.64c42.92,0,77.83,34.92,77.83,77.83v526.52c0,42.92-34.92,77.83-77.83,77.83ZM77.83,15.91c-34.14,0-61.92,27.78-61.92,61.92v526.52c0,34.14,27.78,61.92,61.92,61.92h352.64c34.14,0,61.92-27.78,61.92-61.92V77.83c0-34.14-27.78-61.92-61.92-61.92H77.83Z"/>
    <path class="cls-5"
          d="M81.47,224.46c-1.17,0-2.32-.16-3.45-.48-11.8-3.34-17.54-23.96-17.53-63.05v-58.93c0-18.52,15.07-33.59,33.59-33.59h320.14c18.52,0,33.59,15.07,33.59,33.59v58.5c0,18.52-15.07,33.59-33.59,33.59-49.23,0-101.07-.07-151.2-.15-49.31-.07-100.27-.14-148.78-.15-13.03,20.76-23.58,30.66-32.77,30.66ZM94.08,77.09c-13.74,0-24.91,11.18-24.91,24.91v58.93c-.01,49.04,9.34,54.17,11.21,54.7,2.06.58,10.12.25,27.75-28.44l1.27-2.07h2.43c49.23,0,101.07.07,151.2.15,50.13.07,101.96.15,151.19.15,13.74,0,24.91-11.18,24.91-24.91v-58.5c0-13.74-11.18-24.91-24.91-24.91H94.08Z"/>
    <path class="cls-9"
          d="M404.03,161.65h-23.49c-4.79,0-8.68-3.89-8.68-8.68v-43.45c0-4.79,3.89-8.68,8.68-8.68h23.49c4.79,0,8.68,3.89,8.68,8.68v43.45c0,4.79-3.89,8.68-8.68,8.68ZM380.54,109.52v43.45h23.49v-43.45h-23.49Z"/>
    <path class="cls-7"
          d="M344.02,161.65h-23.49c-4.79,0-8.68-3.89-8.68-8.68v-43.45c0-4.79,3.89-8.68,8.68-8.68h23.49c4.79,0,8.68,3.89,8.68,8.68v43.45c0,4.79-3.89,8.68-8.68,8.68ZM320.54,109.52v43.45h23.49v-43.45h-23.49Z"/>
    <path class="cls-6"
          d="M426.83,419.12c-9.19,0-19.74-9.9-32.77-30.66-48.51,0-99.46.08-148.78.15-50.13.07-101.97.15-151.2.15-18.52,0-33.59-15.07-33.59-33.59v-58.5c0-18.52,15.07-33.59,33.59-33.59h320.14c18.52,0,33.59,15.07,33.59,33.59v58.93c.01,39.09-5.72,59.71-17.53,63.05-1.13.32-2.28.48-3.45.48ZM396.47,379.79h2.43l1.27,2.07c17.63,28.69,25.7,29.02,27.75,28.44,1.87-.53,11.23-5.66,11.21-54.7v-58.93c0-13.74-11.18-24.91-24.91-24.91H94.08c-13.74,0-24.91,11.18-24.91,24.91v58.5c0,13.74,11.18,24.91,24.91,24.91,49.23,0,101.06-.07,151.19-.15,50.13-.07,101.97-.15,151.2-.15Z"/>
    <path class="cls-4"
          d="M127.77,356.32h-23.49c-4.79,0-8.68-3.89-8.68-8.68v-43.45c0-4.79,3.89-8.68,8.68-8.68h23.49c4.79,0,8.68,3.89,8.68,8.68v43.45c0,4.79-3.89,8.68-8.68,8.68ZM104.28,304.19v43.45h23.49v-43.45h-23.49Z"/>
    <path class="cls-3"
          d="M187.77,356.32h-23.49c-4.79,0-8.68-3.89-8.68-8.68v-43.45c0-4.79,3.89-8.68,8.68-8.68h23.49c4.79,0,8.68,3.89,8.68,8.68v43.45c0,4.79-3.89,8.68-8.68,8.68ZM164.28,304.19v43.45h23.49v-43.45h-23.49Z"/>
    <path class="cls-8"
          d="M81.47,613.79c-1.17,0-2.32-.16-3.45-.48-11.8-3.34-17.54-23.96-17.53-63.05v-58.93c0-18.52,15.07-33.58,33.58-33.58h320.14c18.52,0,33.58,15.07,33.58,33.58v58.5c0,18.52-15.07,33.58-33.58,33.58-49.23,0-101.06-.07-151.19-.14-49.31-.07-100.28-.14-148.79-.14-13.03,20.77-23.58,30.67-32.77,30.67ZM94.08,466.42c-13.73,0-24.91,11.17-24.91,24.91v58.93c-.01,49.04,9.34,54.17,11.21,54.7,2.05.58,10.12.25,27.74-28.45l1.27-2.07h2.43c49.24,0,101.08.07,151.21.14,50.13.07,101.96.14,151.18.14,13.73,0,24.9-11.17,24.9-24.91v-58.5c0-13.73-11.17-24.91-24.9-24.91H94.08Z"/>
    <path class="cls-10"
          d="M404.03,550.99h-23.49c-4.79,0-8.68-3.89-8.68-8.68v-43.45c0-4.79,3.89-8.68,8.68-8.68h23.49c4.79,0,8.68,3.89,8.68,8.68v43.45c0,4.79-3.89,8.68-8.68,8.68ZM380.54,498.86h0v43.45h23.49v-43.45h-23.49Z"/>
    <path class="cls-1"
          d="M344.03,550.99h-23.49c-4.79,0-8.68-3.89-8.68-8.68v-43.45c0-4.79,3.89-8.68,8.68-8.68h23.49c4.79,0,8.68,3.89,8.68,8.68v43.45c0,4.79-3.89,8.68-8.68,8.68ZM320.54,498.86h0v43.45h23.49v-43.45h-23.49Z"/>
</svg>